<svg xmlns="http://www.w3.org/2000/svg" xmlns:xlink="http://www.w3.org/1999/xlink" version="1.1" width="1000" height="1000" viewBox="0 0 1000 1000" xml:space="preserve">
<desc>Created with Fabric.js 3.5.0</desc>
<defs>
</defs>
<rect x="0" y="0" width="100%" height="100%" fill="#ffffff"/>
<g transform="matrix(0.974 0 0 0.974 499.9878 499.9878)" id="111718">
<g style="" vector-effect="non-scaling-stroke">
		<g transform="matrix(28.22 0 0 28.22 0.0137 -93.3522)">
<path style="stroke: rgb(0,0,0); stroke-width: 0.2646; stroke-dasharray: none; stroke-linecap: round; stroke-dashoffset: 0; stroke-linejoin: round; stroke-miterlimit: 4; is-custom-font: none; font-file-url: none; fill: none; fill-rule: nonzero; opacity: 1;" transform=" translate(-13.2299, -283.7744)" d="m 20.98 295.68 s -1.5876 -3.4391 -1.3229 -5.2909 c 0.26466 -1.852 1.5876 -3.9689 1.5876 -3.9689 s 1.852 -2.381 2.1167 -3.9689 c 0.26466 -1.587 0 -2.9099 -0.26466 -3.968 c -0.26466 -1.059 -1.0583 -3.44 -3.4396 -5.0279 c -2.3812 -1.587 -6.3499 -1.587 -6.3499 -1.587 s -3.7041 0 -5.8208 1.852 s -2.3812 5.027 -2.3812 5.027 s 0 1.3229 0.26466 2.646 c 0.26466 1.3229 -2.3812 2.646 -2.3812 3.44 c 0 0.79305 1.5876 0.79305 1.5876 1.587 c 0 0.79397 -0.26466 0.79397 -0.26466 1.0581 c 0 0.26503 0.52913 0.26503 0.52913 0.53005 c 0 0.26392 -0.26466 0.79305 -0.26466 0.79305 s 0.87038 0.62805 0.79379 1.3229 c -0.076592 0.69597 -0.52913 1.059 0.26466 1.852 c 0.79379 0.79397 3.4396 -0.26392 4.4979 0.52894 c 1.0583 0.79397 1.5876 3.175 1.5876 3.175 z" stroke-linecap="round"/>
</g>
		<g transform="matrix(28.22 0 0 28.22 118.3269 -188.4484)">
<path style="stroke: rgb(0,0,0); stroke-width: 0.2646; stroke-dasharray: none; stroke-linecap: round; stroke-dashoffset: 0; stroke-linejoin: round; stroke-miterlimit: 4; is-custom-font: none; font-file-url: none; fill: none; fill-rule: nonzero; opacity: 1;" transform=" translate(-17.4224, -280.4046)" d="m 17.206 275.73 c -0.11978 0 -0.19656 0.10003 -0.21612 0.21796 l -0.17219 1.05 v 0.000184 c -0.19471 0.035066 -0.3861 0.086927 -0.57195 0.15503 l -0.67567 -0.82498 c -0.057029 -0.069948 -0.13657 -0.11295 -0.21649 -0.10501 c -0.026945 0 -0.052968 0.009966 -0.078991 0.030083 l -0.3741 0.21593 c -0.10372 0.059981 -0.12144 0.18308 -0.078991 0.29603 l 0.37705 0.99809 l 0.000185 -0.000185 c -0.15244 0.12661 -0.29382 0.26613 -0.42227 0.41692 l -0.99458 -0.37595 c -0.028053 0 -0.057029 -0.019932 -0.086005 -0.019932 c -0.085081 0 -0.16573 0.019932 -0.21058 0.10003 l -0.21612 0.37392 c -0.059981 0.10409 -0.014026 0.21907 0.079914 0.29603 l 0.82572 0.67604 l 0.000184 -0.000184 c -0.067733 0.18604 -0.11941 0.37742 -0.15429 0.57213 l -1.0524 0.17201 c -0.1183 0.019933 -0.21704 0.10003 -0.21704 0.21593 v 0.43205 c 0 0.11996 0.098001 0.19692 0.21704 0.21704 l 1.05 0.17109 v -0.000185 c 0.035435 0.19508 0.087665 0.38683 0.15595 0.57305 l -0.82534 0.67604 c -0.093018 0.079913 -0.1399 0.19102 -0.079914 0.29492 l 0.21593 0.37502 c 0.059982 0.10409 0.18345 0.12107 0.29603 0.079914 l 0.99809 -0.37705 l -0.000185 0.000184 c 0.12698 0.15226 0.26669 0.29345 0.41766 0.4219 l -0.37613 0.99495 c -0.042079 0.11295 -0.024915 0.23605 0.078991 0.29603 l 0.37447 0.21593 c 0.10372 0.059981 0.21926 0.009966 0.29548 -0.079914 l 0.67696 -0.82608 l -0.000185 0.000185 c 0.18567 0.067548 0.37668 0.11904 0.57102 0.15392 l 0.17256 1.0531 c 0.019932 0.11793 0.095971 0.21704 0.21612 0.21704 h 0.43205 c 0.11978 0 0.19674 -0.10003 0.21612 -0.21704 l 0.17219 -1.0511 c 0.19508 -0.035251 0.38665 -0.087112 0.57287 -0.15503 l 0.67622 0.82608 c 0.076038 0.090065 0.19176 0.13805 0.29548 0.079914 l 0.37447 -0.21501 c 0.10372 -0.059981 0.12089 -0.184 0.078991 -0.29603 l -0.37779 -0.99994 h -0.000184 c 0.15208 -0.12642 0.29308 -0.26558 0.42135 -0.416 l 0.99606 0.37595 c 0.11277 0.040049 0.23624 0.030083 0.29603 -0.079914 l 0.21612 -0.37502 c 0.059982 -0.10298 0.012919 -0.21907 -0.079914 -0.29492 l -0.82719 -0.67696 v -0.000184 c 0.067549 -0.18548 0.11922 -0.3765 0.15429 -0.57102 l 1.0535 -0.17201 c 0.11886 -0.019932 0.21704 -0.10003 0.21704 -0.21704 v -0.43205 c 0 -0.11996 -0.098924 -0.196 -0.21704 -0.21593 l -1.0511 -0.17201 v 0.000185 c -0.035436 -0.19526 -0.087481 -0.38683 -0.15577 -0.57305 l 0.82572 -0.67604 c 0.093017 -0.079913 0.1399 -0.19102 0.079914 -0.29492 l -0.21593 -0.37392 c -0.045032 -0.079914 -0.12568 -0.10594 -0.21077 -0.10003 c -0.028052 0 -0.057028 0.009966 -0.085081 0.019932 l -0.99865 0.37705 h 0.000185 c -0.12679 -0.15244 -0.26632 -0.29363 -0.41729 -0.42208 l 0.37613 -0.99496 c 0.043002 -0.11203 0.024916 -0.23697 -0.078991 -0.29603 l -0.37447 -0.21593 c -0.026023 -0.009966 -0.052045 -0.019932 -0.078991 -0.030083 c -0.079914 0 -0.15946 0.040049 -0.21649 0.10594 l -0.67659 0.82701 h 0.000184 c -0.18585 -0.067548 -0.37705 -0.11904 -0.57176 -0.15392 l -0.17256 -1.0531 c -0.01901 -0.11904 -0.09597 -0.21796 -0.21612 -0.21796 z m 0.21649 2.942 h -0.000185 c 0.45863 0 0.89825 0.18216 1.2225 0.50643 c 0.32408 0.32427 0.50624 0.76407 0.50606 1.2225 c 0.000184 0.45863 -0.18198 0.89843 -0.50606 1.2227 c -0.32427 0.32427 -0.76389 0.50643 -1.2225 0.50643 c -0.45844 0 -0.89825 -0.18216 -1.2225 -0.50643 c -0.32408 -0.32427 -0.50624 -0.76407 -0.50606 -1.2227 c -0.000185 -0.45844 0.18197 -0.89825 0.50606 -1.2225 c 0.32427 -0.32427 0.76407 -0.50643 1.2225 -0.50643 z" stroke-linecap="round"/>
</g>
		<g transform="matrix(28.22 0 0 28.22 -84.637 -245.9559)">
<path style="stroke: rgb(0,0,0); stroke-width: 0.2646; stroke-dasharray: none; stroke-linecap: round; stroke-dashoffset: 0; stroke-linejoin: round; stroke-miterlimit: 4; is-custom-font: none; font-file-url: none; fill: none; fill-rule: nonzero; opacity: 1;" transform=" translate(-10.2302, -278.3668)" d="m 10.802 275.64 c -0.069948 0 -0.12845 0.030083 -0.15669 0.10095 l -0.25524 0.58007 c -0.11682 -0.009966 -0.2342 -0.009966 -0.35084 0 l -0.26687 -0.58302 c -0.02307 -0.040049 -0.061642 -0.090064 -0.10981 -0.090064 h -0.047616 l -0.24731 0.059981 c -0.067179 0 -0.097446 0.090065 -0.08951 0.15909 l 0.06884 0.63193 l -0.000185 0.000184 c -0.10667 0.050016 -0.20892 0.10926 -0.30526 0.17699 l -0.51695 -0.36303 h -0.050753 c -0.049462 0 -0.099108 0 -0.13676 0.030083 l -0.17976 0.18308 c -0.049831 0.059982 -0.040234 0.12402 0.00203 0.18308 l 0.37521 0.51104 v -0.000369 c -0.066626 0.097631 -0.12495 0.20062 -0.17385 0.30803 l -0.63156 -0.059982 c -0.068103 -0.019932 -0.14045 0.030083 -0.15724 0.090065 l -0.064411 0.25008 c -0.017164 0.069948 0.026945 0.12808 0.092833 0.15706 l 0.57951 0.25395 v -0.000184 c -0.008489 0.11756 -0.006828 0.23568 0.004983 0.35306 l -0.57601 0.26706 c -0.063488 0.019932 -0.10889 0.090064 -0.090064 0.15909 l 0.068656 0.24805 c 0.019932 0.059981 0.089141 0.090064 0.15983 0.079914 l 0.63082 -0.069948 l 0.000185 -0.000185 c 0.050384 0.10668 0.11 0.20874 0.17791 0.30508 l -0.3645 0.51806 c -0.042079 0.069948 -0.049462 0.13307 0.00203 0.18198 l 0.18327 0.17994 c 0.050384 0.050016 0.12661 0.030083 0.18105 0 l 0.51252 -0.37502 h 0.000185 c 0.096893 0.066256 0.19932 0.12421 0.306 0.17293 l -0.056475 0.63304 c -0.00609 0.069948 0.02307 0.14008 0.092279 0.15706 l 0.25063 0.059981 c 0.068655 0.019932 0.12864 -0.030083 0.1565 -0.090064 l 0.25524 -0.58099 c 0.11701 0.01015 0.23457 0.01015 0.35158 0 l 0.26669 0.57693 c 0.030083 0.059982 0.090988 0.10907 0.15614 0.090065 l 0.24749 -0.059982 c 0.069947 -0.019932 0.097077 -0.090064 0.088957 -0.15798 l -0.071978 -0.60996 c 0.10668 -0.052415 0.20874 -0.11406 0.30471 -0.184 l 0.51769 0.36395 c 0.059982 0.040049 0.1351 0.040049 0.18142 0 l 0.18031 -0.18198 c 0.050015 -0.050015 0.040972 -0.12199 0 -0.17994 l -0.37558 -0.514 h 0.000184 c 0.06681 -0.097263 0.12513 -0.19988 0.17441 -0.30711 l 0.63211 0.059982 c 0.073085 0 0.14026 -0.030083 0.15706 -0.090065 l 0.066995 -0.24694 c 0.016979 -0.069948 -0.028053 -0.12993 -0.093018 -0.15706 l -0.58007 -0.25598 l 0.000184 0.000185 c 0.010151 -0.11793 0.010151 -0.23624 0 -0.35398 l 0.57619 -0.26503 c 0.062934 -0.019933 0.10815 -0.090065 0.090064 -0.15798 l -0.066994 -0.25709 c -0.014027 -0.050016 -0.057952 -0.069948 -0.10649 -0.090065 h -0.050016 l -0.631 0.069948 l -0.000185 0.000185 c -0.050015 -0.1076 -0.10926 -0.21077 -0.17718 -0.30803 l 0.36413 -0.51806 c 0.043002 -0.069948 0.050015 -0.13307 0 -0.18198 l -0.18345 -0.18197 c -0.014949 0 -0.031006 0 -0.036912 -0.04005 c -0.047062 0 -0.097078 0 -0.1399 0.030083 l -0.5127 0.37595 c -0.096708 -0.066995 -0.19895 -0.1255 -0.30563 -0.17496 l 0.055921 -0.63193 c 0.009966 -0.069947 -0.02307 -0.14008 -0.09191 -0.15706 z m -0.31227 1.7269 v 0.000185 c 0.26429 0.068102 0.49056 0.23845 0.62898 0.47339 c 0.1386 0.23494 0.1781 0.51547 0.10981 0.77958 c -0.067917 0.2641 -0.23826 0.49037 -0.47321 0.62898 c -0.23494 0.1386 -0.51529 0.17828 -0.77939 0.11 c -0.26429 -0.068102 -0.49037 -0.23845 -0.62898 -0.47339 c -0.1386 -0.23513 -0.17791 -0.51547 -0.10963 -0.77958 c 0.067918 -0.2641 0.23826 -0.49037 0.47321 -0.62898 c 0.23476 -0.1386 0.5151 -0.1781 0.77921 -0.11 z" stroke-linecap="round"/>
</g>
</g>
</g>
<g transform="matrix(1 0 0 1 608.532 780.2148)" style="" id="969969">
		
<path xml:space="preserve" font-family="Quicksand" font-size="72" font-weight="bold" style="stroke: none; stroke-width: 0; stroke-dasharray: none; stroke-linecap: butt; stroke-dashoffset: 0; stroke-linejoin: miter; stroke-miterlimit: 4; is-custom-font: none; font-file-url: none; fill: rgb(0,0,0); fill-rule: nonzero; opacity: 1; white-space: pre;" d="M-237.35-25.33L-237.35-25.33Q-235.48-24.40-235.15-22.38Q-234.83-20.37-236.20-18.71L-236.20-18.71Q-237.13-17.41-238.61-17.27Q-240.08-17.13-241.60-17.85L-241.60-17.85Q-243.32-18.64-245.23-19.07Q-247.14-19.50-249.23-19.50L-249.23-19.50Q-253.12-19.50-256.18-18.28Q-259.24-17.05-261.40-14.79Q-263.56-12.52-264.67-9.42Q-265.79-6.33-265.79-2.58L-265.79-2.58Q-265.79 1.81-264.53 5.05Q-263.27 8.29-261.04 10.45Q-258.80 12.61-255.78 13.65Q-252.76 14.70-249.23 14.70L-249.23 14.70Q-247.28 14.70-245.34 14.34Q-243.40 13.98-241.60 13.04L-241.60 13.04Q-240.08 12.32-238.61 12.54Q-237.13 12.75-236.12 14.05L-236.12 14.05Q-234.68 15.85-235.08 17.76Q-235.48 19.67-237.28 20.53L-237.28 20.53Q-239.15 21.47-241.13 22.08Q-243.11 22.69-245.12 23.01Q-247.14 23.34-249.23 23.34L-249.23 23.34Q-254.41 23.34-259.06 21.68Q-263.70 20.03-267.34 16.79Q-270.97 13.55-273.06 8.69Q-275.15 3.83-275.15-2.58L-275.15-2.58Q-275.15-8.13-273.24-12.81Q-271.33-17.49-267.84-20.91Q-264.35-24.33-259.60-26.23Q-254.84-28.14-249.23-28.14L-249.23-28.14Q-246.06-28.14-243.04-27.42Q-240.01-26.70-237.35-25.33ZM-223.88 22.62L-223.88 22.62Q-225.76 22.62-226.98 21.36Q-228.20 20.10-228.20 18.23L-228.20 18.23L-228.20-11.51Q-228.20-13.38-226.98-14.64Q-225.76-15.90-223.88-15.90L-223.88-15.90Q-222.01-15.90-220.79-14.64Q-219.56-13.38-219.56-11.51L-219.56-11.51L-219.56-4.74L-220.07-9.57Q-219.28-11.29-218.02-12.63Q-216.76-13.96-215.17-14.86Q-213.59-15.76-211.79-16.19Q-209.99-16.62-208.19-16.62L-208.19-16.62Q-206.03-16.62-204.55-15.40Q-203.08-14.17-203.08-12.52L-203.08-12.52Q-203.08-10.14-204.30-9.10Q-205.52-8.05-206.96-8.05L-206.96-8.05Q-208.33-8.05-209.45-8.56Q-210.56-9.06-212.00-9.06L-212.00-9.06Q-213.30-9.06-214.63-8.45Q-215.96-7.84-217.08-6.54Q-218.20-5.25-218.88-3.34Q-219.56-1.43-219.56 1.16L-219.56 1.16L-219.56 18.23Q-219.56 20.10-220.79 21.36Q-222.01 22.62-223.88 22.62ZM-188.82-11.51L-188.82 18.23Q-188.82 20.10-190.04 21.36Q-191.27 22.62-193.14 22.62L-193.14 22.62Q-195.01 22.62-196.24 21.36Q-197.46 20.10-197.46 18.23L-197.46 18.23L-197.46-11.51Q-197.46-13.38-196.24-14.64Q-195.01-15.90-193.14-15.90L-193.14-15.90Q-191.27-15.90-190.04-14.64Q-188.82-13.38-188.82-11.51L-188.82-11.51ZM-193.21-20.58L-193.21-20.58Q-195.66-20.58-196.67-21.37Q-197.68-22.17-197.68-24.18L-197.68-24.18L-197.68-25.55Q-197.68-27.64-196.56-28.39Q-195.44-29.15-193.14-29.15L-193.14-29.15Q-190.62-29.15-189.61-28.36Q-188.60-27.57-188.60-25.55L-188.60-25.55L-188.60-24.18Q-188.60-22.09-189.68-21.34Q-190.76-20.58-193.21-20.58ZM-179.53-15.18L-179.53-15.18L-162.47-15.18Q-160.74-15.18-159.59-14.03Q-158.44-12.88-158.44-11.15L-158.44-11.15Q-158.44-9.49-159.59-8.38Q-160.74-7.26-162.47-7.26L-162.47-7.26L-179.53-7.26Q-181.26-7.26-182.41-8.41Q-183.56-9.57-183.56-11.29L-183.56-11.29Q-183.56-12.95-182.41-14.07Q-181.26-15.18-179.53-15.18ZM-171.83-24.18L-171.83-24.18Q-169.96-24.18-168.77-22.92Q-167.58-21.66-167.58-19.79L-167.58-19.79L-167.58 12.25Q-167.58 13.26-167.18 13.91Q-166.79 14.55-166.10 14.84Q-165.42 15.13-164.63 15.13L-164.63 15.13Q-163.76 15.13-163.04 14.81Q-162.32 14.48-161.39 14.48L-161.39 14.48Q-160.38 14.48-159.55 15.42Q-158.72 16.35-158.72 18.01L-158.72 18.01Q-158.72 20.03-160.92 21.32Q-163.12 22.62-165.64 22.62L-165.64 22.62Q-167.15 22.62-168.98 22.37Q-170.82 22.11-172.44 21.14Q-174.06 20.17-175.14 18.15Q-176.22 16.14-176.22 12.61L-176.22 12.61L-176.22-19.79Q-176.22-21.66-174.96-22.92Q-173.70-24.18-171.83-24.18ZM-142.38-11.51L-142.38 18.23Q-142.38 20.10-143.60 21.36Q-144.83 22.62-146.70 22.62L-146.70 22.62Q-148.57 22.62-149.80 21.36Q-151.02 20.10-151.02 18.23L-151.02 18.23L-151.02-11.51Q-151.02-13.38-149.80-14.64Q-148.57-15.90-146.70-15.90L-146.70-15.90Q-144.83-15.90-143.60-14.64Q-142.38-13.38-142.38-11.51L-142.38-11.51ZM-146.77-20.58L-146.77-20.58Q-149.22-20.58-150.23-21.37Q-151.24-22.17-151.24-24.18L-151.24-24.18L-151.24-25.55Q-151.24-27.64-150.12-28.39Q-149.00-29.15-146.70-29.15L-146.70-29.15Q-144.18-29.15-143.17-28.36Q-142.16-27.57-142.16-25.55L-142.16-25.55L-142.16-24.18Q-142.16-22.09-143.24-21.34Q-144.32-20.58-146.77-20.58ZM-116.75-16.62L-116.75-16.62Q-112.64-16.62-109.58-15.76Q-106.52-14.89-104.83-13.35Q-103.14-11.80-103.14-9.64L-103.14-9.64Q-103.14-8.20-104.00-6.94Q-104.87-5.68-106.52-5.68L-106.52-5.68Q-107.68-5.68-108.43-6.00Q-109.19-6.33-109.76-6.83Q-110.34-7.33-111.13-7.77L-111.13-7.77Q-111.85-8.20-113.33-8.45Q-114.80-8.70-115.52-8.70L-115.52-8.70Q-119.20-8.70-121.75-7.12Q-124.31-5.53-125.68-2.83Q-127.04-0.13-127.04 3.39L-127.04 3.39Q-127.04 6.85-125.64 9.55Q-124.24 12.25-121.75 13.83Q-119.27 15.42-116.03 15.42L-116.03 15.42Q-114.23 15.42-112.93 15.20Q-111.64 14.99-110.77 14.55L-110.77 14.55Q-109.76 13.98-108.97 13.33Q-108.18 12.68-106.60 12.68L-106.60 12.68Q-104.72 12.68-103.72 13.87Q-102.71 15.06-102.71 16.79L-102.71 16.79Q-102.71 18.59-104.72 20.06Q-106.74 21.54-110.02 22.44Q-113.29 23.34-117.11 23.34L-117.11 23.34Q-122.80 23.34-126.97 20.71Q-131.15 18.08-133.42 13.55Q-135.68 9.01-135.68 3.39L-135.68 3.39Q-135.68-2.51-133.27-7.01Q-130.86-11.51-126.58-14.07Q-122.29-16.62-116.75-16.62ZM-65.27-16.62L-65.27-16.62Q-63.40-16.62-62.17-15.40Q-60.95-14.17-60.95-12.23L-60.95-12.23L-60.95 18.23Q-60.95 20.10-62.17 21.36Q-63.40 22.62-65.27 22.62L-65.27 22.62Q-67.14 22.62-68.36 21.36Q-69.59 20.10-69.59 18.23L-69.59 18.23L-69.59 14.70L-68.00 15.35Q-68.00 16.28-69.01 17.61Q-70.02 18.95-71.75 20.24Q-73.48 21.54-75.82 22.44Q-78.16 23.34-80.89 23.34L-80.89 23.34Q-85.86 23.34-89.89 20.78Q-93.92 18.23-96.26 13.73Q-98.60 9.23-98.60 3.39L-98.60 3.39Q-98.60-2.51-96.26-7.01Q-93.92-11.51-89.96-14.07Q-86.00-16.62-81.18-16.62L-81.18-16.62Q-78.08-16.62-75.49-15.69Q-72.90-14.75-70.99-13.31Q-69.08-11.87-68.04-10.39Q-67.00-8.92-67.00-7.91L-67.00-7.91L-69.59-6.97L-69.59-12.23Q-69.59-14.10-68.36-15.36Q-67.14-16.62-65.27-16.62ZM-79.81 15.42L-79.81 15.42Q-76.64 15.42-74.27 13.83Q-71.89 12.25-70.56 9.51Q-69.23 6.78-69.23 3.39L-69.23 3.39Q-69.23-0.06-70.56-2.80Q-71.89-5.53-74.27-7.12Q-76.64-8.70-79.81-8.70L-79.81-8.70Q-82.91-8.70-85.28-7.12Q-87.66-5.53-88.99-2.80Q-90.32-0.06-90.32 3.39L-90.32 3.39Q-90.32 6.78-88.99 9.51Q-87.66 12.25-85.28 13.83Q-82.91 15.42-79.81 15.42ZM-42.23-26.27L-42.23 18.23Q-42.23 20.10-43.49 21.36Q-44.75 22.62-46.62 22.62L-46.62 22.62Q-48.42 22.62-49.64 21.36Q-50.87 20.10-50.87 18.23L-50.87 18.23L-50.87-26.27Q-50.87-28.14-49.61-29.40Q-48.35-30.66-46.48-30.66L-46.48-30.66Q-44.60-30.66-43.42-29.40Q-42.23-28.14-42.23-26.27L-42.23-26.27ZM5.80 22.62L5.80 22.62Q3.78 22.62 2.48 21.36Q1.19 20.10 1.19 18.23L1.19 18.23L1.19-23.53L10.55-23.53L10.55 18.23Q10.55 20.10 9.22 21.36Q7.88 22.62 5.80 22.62ZM21.85-19.50L-10.12-19.50Q-11.99-19.50-13.25-20.65Q-14.51-21.81-14.51-23.68L-14.51-23.68Q-14.51-25.55-13.25-26.67Q-11.99-27.78-10.12-27.78L-10.12-27.78L21.85-27.78Q23.72-27.78 24.98-26.63Q26.24-25.48 26.24-23.61L26.24-23.61Q26.24-21.73 24.98-20.62Q23.72-19.50 21.85-19.50L21.85-19.50ZM53.32-16.62L53.32-16.62Q58.50-16.62 61.20-14.39Q63.90-12.16 64.91-8.45Q65.92-4.74 65.92-0.21L65.92-0.21L65.92 18.23Q65.92 20.10 64.69 21.36Q63.47 22.62 61.60 22.62L61.60 22.62Q59.72 22.62 58.50 21.36Q57.28 20.10 57.28 18.23L57.28 18.23L57.28-0.21Q57.28-2.58 56.70-4.49Q56.12-6.40 54.61-7.55Q53.10-8.70 50.29-8.70L50.29-8.70Q47.56-8.70 45.61-7.55Q43.67-6.40 42.70-4.49Q41.72-2.58 41.72-0.21L41.72-0.21L41.72 18.23Q41.72 20.10 40.50 21.36Q39.28 22.62 37.40 22.62L37.40 22.62Q35.53 22.62 34.31 21.36Q33.08 20.10 33.08 18.23L33.08 18.23L33.08-26.27Q33.08-28.14 34.31-29.40Q35.53-30.66 37.40-30.66L37.40-30.66Q39.28-30.66 40.50-29.40Q41.72-28.14 41.72-26.27L41.72-26.27L41.72-8.41L40.64-8.63Q41.29-9.85 42.44-11.26Q43.60-12.66 45.25-13.89Q46.91-15.11 48.92-15.87Q50.94-16.62 53.32-16.62ZM83.41-11.51L83.41 18.23Q83.41 20.10 82.19 21.36Q80.96 22.62 79.09 22.62L79.09 22.62Q77.22 22.62 76.00 21.36Q74.77 20.10 74.77 18.23L74.77 18.23L74.77-11.51Q74.77-13.38 76.00-14.64Q77.22-15.90 79.09-15.90L79.09-15.90Q80.96-15.90 82.19-14.64Q83.41-13.38 83.41-11.51L83.41-11.51ZM79.02-20.58L79.02-20.58Q76.57-20.58 75.56-21.37Q74.56-22.17 74.56-24.18L74.56-24.18L74.56-25.55Q74.56-27.64 75.67-28.39Q76.79-29.15 79.09-29.15L79.09-29.15Q81.61-29.15 82.62-28.36Q83.63-27.57 83.63-25.55L83.63-25.55L83.63-24.18Q83.63-22.09 82.55-21.34Q81.47-20.58 79.02-20.58ZM112.86-16.62L112.86-16.62Q118.19-16.62 120.96-14.39Q123.73-12.16 124.78-8.45Q125.82-4.74 125.82-0.21L125.82-0.21L125.82 18.23Q125.82 20.10 124.60 21.36Q123.37 22.62 121.50 22.62L121.50 22.62Q119.63 22.62 118.40 21.36Q117.18 20.10 117.18 18.23L117.18 18.23L117.18-0.21Q117.18-2.58 116.57-4.49Q115.96-6.40 114.37-7.55Q112.79-8.70 109.84-8.70L109.84-8.70Q106.96-8.70 104.98-7.55Q103.00-6.40 101.95-4.49Q100.91-2.58 100.91-0.21L100.91-0.21L100.91 18.23Q100.91 20.10 99.68 21.36Q98.46 22.62 96.59 22.62L96.59 22.62Q94.72 22.62 93.49 21.36Q92.27 20.10 92.27 18.23L92.27 18.23L92.27-11.51Q92.27-13.38 93.49-14.64Q94.72-15.90 96.59-15.90L96.59-15.90Q98.46-15.90 99.68-14.64Q100.91-13.38 100.91-11.51L100.91-11.51L100.91-8.41L99.83-8.63Q100.48-9.85 101.70-11.26Q102.92-12.66 104.58-13.89Q106.24-15.11 108.32-15.87Q110.41-16.62 112.86-16.62ZM140.22 22.62L140.22 22.62Q138.35 22.62 137.12 21.36Q135.90 20.10 135.90 18.23L135.90 18.23L135.90-26.27Q135.90-28.14 137.12-29.40Q138.35-30.66 140.22-30.66L140.22-30.66Q142.09-30.66 143.32-29.40Q144.54-28.14 144.54-26.27L144.54-26.27L144.54 18.23Q144.54 20.10 143.32 21.36Q142.09 22.62 140.22 22.62ZM163.12-15.90L163.12-15.90Q164.77-15.90 166.00-14.53Q167.22-13.17 167.22-11.87L167.22-11.87Q167.22-10.14 165.49-8.63L165.49-8.63L143.82 11.31L143.46 1.38L159.95-14.53Q161.32-15.90 163.12-15.90ZM164.20 22.55L164.20 22.55Q162.32 22.55 161.03 21.11L161.03 21.11L147.71 6.99L154.26 0.95L167.22 15.06Q168.59 16.50 168.59 18.30L168.59 18.30Q168.59 20.17 167.11 21.36Q165.64 22.55 164.20 22.55ZM184.28-11.51L184.28 18.23Q184.28 20.10 183.06 21.36Q181.84 22.62 179.96 22.62L179.96 22.62Q178.09 22.62 176.87 21.36Q175.64 20.10 175.64 18.23L175.64 18.23L175.64-11.51Q175.64-13.38 176.87-14.64Q178.09-15.90 179.96-15.90L179.96-15.90Q181.84-15.90 183.06-14.64Q184.28-13.38 184.28-11.51L184.28-11.51ZM179.89-20.58L179.89-20.58Q177.44-20.58 176.44-21.37Q175.43-22.17 175.43-24.18L175.43-24.18L175.43-25.55Q175.43-27.64 176.54-28.39Q177.66-29.15 179.96-29.15L179.96-29.15Q182.48-29.15 183.49-28.36Q184.50-27.57 184.50-25.55L184.50-25.55L184.50-24.18Q184.50-22.09 183.42-21.34Q182.34-20.58 179.89-20.58ZM213.73-16.62L213.73-16.62Q219.06-16.62 221.83-14.39Q224.60-12.16 225.65-8.45Q226.69-4.74 226.69-0.21L226.69-0.21L226.69 18.23Q226.69 20.10 225.47 21.36Q224.24 22.62 222.37 22.62L222.37 22.62Q220.50 22.62 219.28 21.36Q218.05 20.10 218.05 18.23L218.05 18.23L218.05-0.21Q218.05-2.58 217.44-4.49Q216.83-6.40 215.24-7.55Q213.66-8.70 210.71-8.70L210.71-8.70Q207.83-8.70 205.85-7.55Q203.87-6.40 202.82-4.49Q201.78-2.58 201.78-0.21L201.78-0.21L201.78 18.23Q201.78 20.10 200.56 21.36Q199.33 22.62 197.46 22.62L197.46 22.62Q195.59 22.62 194.36 21.36Q193.14 20.10 193.14 18.23L193.14 18.23L193.14-11.51Q193.14-13.38 194.36-14.64Q195.59-15.90 197.46-15.90L197.46-15.90Q199.33-15.90 200.56-14.64Q201.78-13.38 201.78-11.51L201.78-11.51L201.78-8.41L200.70-8.63Q201.35-9.85 202.57-11.26Q203.80-12.66 205.45-13.89Q207.11-15.11 209.20-15.87Q211.28-16.62 213.73-16.62ZM251.68-16.62L251.68-16.62Q254.70-16.62 257.22-15.69Q259.74-14.75 261.58-13.31Q263.41-11.87 264.46-10.39Q265.50-8.92 265.50-7.91L265.50-7.91L263.63-6.97L263.63-12.23Q263.63-14.10 264.85-15.36Q266.08-16.62 267.95-16.62L267.95-16.62Q269.82-16.62 271.04-15.40Q272.27-14.17 272.27-12.23L272.27-12.23L272.27 19.81Q272.27 26.07 269.57 29.85Q266.87 33.63 262.48 35.33Q258.08 37.02 253.04 37.02L253.04 37.02Q251.60 37.02 249.30 36.66Q247.00 36.30 244.91 35.79Q242.82 35.29 241.74 34.86L241.74 34.86Q239.58 33.92 238.75 32.52Q237.92 31.11 238.43 29.53L238.43 29.53Q239.08 27.44 240.52 26.69Q241.96 25.93 243.54 26.51L243.54 26.51Q244.26 26.72 245.92 27.37Q247.57 28.02 249.55 28.56Q251.53 29.10 253.04 29.10L253.04 29.10Q258.44 29.10 261.04 26.94Q263.63 24.78 263.63 20.96L263.63 20.96L263.63 14.70L264.49 15.35Q264.49 16.28 263.52 17.61Q262.55 18.95 260.86 20.24Q259.16 21.54 256.86 22.44Q254.56 23.34 251.96 23.34L251.96 23.34Q246.85 23.34 242.75 20.78Q238.64 18.23 236.27 13.73Q233.89 9.23 233.89 3.39L233.89 3.39Q233.89-2.51 236.27-7.01Q238.64-11.51 242.68-14.07Q246.71-16.62 251.68-16.62ZM253.04-8.70L253.04-8.70Q249.80-8.70 247.36-7.12Q244.91-5.53 243.54-2.80Q242.17-0.06 242.17 3.39L242.17 3.39Q242.17 6.78 243.54 9.51Q244.91 12.25 247.36 13.83Q249.80 15.42 253.04 15.42L253.04 15.42Q256.36 15.42 258.80 13.83Q261.25 12.25 262.62 9.51Q263.99 6.78 263.99 3.39L263.99 3.39Q263.99-0.06 262.62-2.80Q261.25-5.53 258.80-7.12Q256.36-8.70 253.04-8.70Z"/></g>
</svg>