<?xml version="1.0" encoding="utf-8"?>
<!-- Generator: Adobe Illustrator 24.0.0, SVG Export Plug-In . SVG Version: 6.00 Build 0)  -->
<svg version="1.1" id="Layer_1" xmlns="http://www.w3.org/2000/svg" xmlns:xlink="http://www.w3.org/1999/xlink" x="0px" y="0px"
	 viewBox="0 0 512 512" style="enable-background:new 0 0 512 512;" xml:space="preserve">
<style type="text/css">
	.st0{fill:#D7312C;}
	.st1{fill:#FFFFFF;}
	.st2{fill:#4B4D52;}
</style>
<g id="XMLID_1_">
	<g id="XMLID_52_">
		<g id="XMLID_53_">
			<path id="XMLID_54_" class="st0" d="M96.5,209h1.4c1.5,1.3,3.1,2.4,4.6,3.6c3.7,2.9,7.4,5.8,11.1,8.6c0,0,0.1,0.1,0.1,0.1
				c4.2,3.3,8.5,6.6,12.7,9.9c0,0,0.1,0.1,0.1,0.1c0.4,0.3,0.9,0.6,0.7,1.2c-2.1,17.7-4.2,35.5-6.3,53.2c-0.1,0.1-0.3,0.2-0.4,0.2
				c-0.1,0-0.4,0.1-0.5,0.2c-0.4,0.1-0.7,0.2-1,0.2c-0.1,0.1-0.4,0.2-0.5,0.2c-0.1,0-0.3,0-0.4,0c-0.1,0.1-0.4,0.2-0.5,0.2l-0.2,0
				c-0.1,0.1-0.4,0.2-0.5,0.2c-0.1,0-0.3,0-0.4,0c-0.1,0.1-0.4,0.2-0.5,0.2l-0.2,0c-0.1,0.1-0.4,0.2-0.5,0.2c-0.1,0-0.3,0-0.4,0
				c-0.1,0.1-0.4,0.2-0.5,0.2l-0.2,0c-0.1,0.1-0.4,0.2-0.5,0.2c-0.1,0-0.3,0-0.4,0c-0.1,0.1-0.4,0.2-0.5,0.2l-0.2,0
				c-0.1,0.1-0.4,0.2-0.5,0.2c-0.1,0-0.3,0-0.4,0c-0.1,0.1-0.4,0.2-0.5,0.2l-0.2,0c-0.1,0.1-0.4,0.2-0.5,0.2c-0.1,0-0.3,0-0.4,0
				c-0.1,0.1-0.4,0.2-0.5,0.2c-0.4,0.1-0.7,0.1-1.1,0.2c-0.1,0.1-0.4,0.2-0.5,0.2c-0.4,0.1-0.7,0.1-1.1,0.2
				c-0.1,0.1-0.4,0.2-0.5,0.2c-0.1,0-0.3,0-0.4,0c-0.1,0.1-0.4,0.2-0.5,0.2l-0.2,0c-0.1,0.1-0.4,0.2-0.5,0.2c-0.1,0-0.3,0-0.4,0
				c-0.1,0.1-0.4,0.2-0.5,0.2l-0.2,0c-0.1,0.1-0.4,0.2-0.5,0.2c-0.1,0-0.3,0-0.4,0c-0.1,0.1-0.4,0.2-0.5,0.2l-0.2,0
				c-0.1,0.1-0.4,0.2-0.5,0.2c-0.1,0-0.3,0-0.4,0c-0.1,0.1-0.4,0.2-0.5,0.2l-0.2,0c-0.1,0.1-0.4,0.2-0.5,0.2c-0.1,0-0.3,0-0.4,0
				c-0.1,0.1-0.4,0.2-0.5,0.2l-0.2,0c-0.1,0.1-0.4,0.2-0.5,0.2c-0.1,0-0.3,0-0.4,0c-0.1,0.1-0.4,0.2-0.5,0.2
				c-0.4,0.1-0.7,0.1-1.1,0.2c-0.1,0.1-0.4,0.2-0.5,0.2c-0.4,0.1-0.7,0.1-1.1,0.2c-0.1,0.1-0.4,0.2-0.5,0.2c-0.1,0-0.3,0-0.4,0
				c-0.1,0.1-0.4,0.2-0.5,0.2l-0.2,0c-0.1,0.1-0.4,0.2-0.5,0.2c-0.1,0-0.3,0-0.4,0c-0.1,0.1-0.4,0.2-0.5,0.2l-0.2,0
				c-0.1,0.1-0.4,0.2-0.5,0.2c-0.1,0-0.3,0-0.4,0c-0.1,0.1-0.4,0.2-0.5,0.2l-0.2,0c-0.1,0.1-0.4,0.2-0.5,0.2c-0.1,0-0.3,0-0.4,0
				c-0.1,0.1-0.4,0.2-0.5,0.2c-0.4,0.1-0.7,0.1-1.1,0.2c-0.1,0.1-0.4,0.2-0.5,0.2c-0.4,0.1-0.7,0.1-1.1,0.2
				c-0.1,0.1-0.4,0.2-0.5,0.2l-0.2,0c-0.1,0.1-0.4,0.2-0.5,0.2c-0.1,0-0.3,0-0.4,0c-0.1,0.1-0.4,0.2-0.5,0.2
				c-0.4,0.1-0.7,0.1-1.1,0.2c-0.1,0.1-0.4,0.2-0.5,0.2c-0.1,0-0.3,0-0.4,0c-0.1,0.1-0.4,0.2-0.5,0.2l-0.2,0
				c-0.1,0.1-0.4,0.2-0.5,0.2c-0.1,0-0.3,0-0.4,0c-0.1,0.1-0.4,0.2-0.5,0.2l-0.2,0c-0.1,0.1-0.4,0.2-0.5,0.2c-0.1,0-0.3,0-0.4,0
				c-0.1,0.1-0.4,0.2-0.5,0.2l-0.2,0c-0.1,0.1-0.4,0.2-0.5,0.2c-0.1,0-0.3,0-0.4,0c-0.1,0.1-0.4,0.2-0.5,0.2l-0.2,0
				c-0.1,0.1-0.4,0.2-0.5,0.2c-0.1,0-0.3,0-0.4,0c-0.1,0.1-0.4,0.2-0.5,0.2c-0.4,0.1-0.7,0.1-1.1,0.2c-0.1,0.1-0.4,0.2-0.5,0.2
				c-0.4,0.1-0.7,0.1-1.1,0.2c-0.1,0.1-0.4,0.2-0.5,0.2c-0.1,0-0.3,0-0.4,0c-0.1,0.1-0.4,0.2-0.5,0.2l-0.2,0
				c-0.1,0.1-0.4,0.2-0.5,0.2c-0.1,0-0.3,0-0.4,0c-0.1,0.1-0.4,0.2-0.5,0.2l-0.2,0c-0.1,0.1-0.4,0.2-0.5,0.2c-0.1,0-0.3,0-0.4,0
				c-0.1,0.1-0.4,0.2-0.5,0.2l-0.2,0c-0.1,0.1-0.4,0.2-0.5,0.2c-0.1,0-0.3,0-0.4,0c-0.1,0.1-0.4,0.2-0.5,0.2l-0.2,0
				c-0.1,0.1-0.4,0.2-0.5,0.2c-0.1,0-0.3,0-0.4,0c-0.1,0.1-0.4,0.2-0.5,0.2l-0.2,0c-0.1,0.1-0.4,0.2-0.5,0.2c-0.1,0-0.3,0-0.4,0
				c-0.1,0.1-0.4,0.2-0.5,0.2c-0.4,0.1-0.7,0.1-1.1,0.2c-0.1,0.1-0.4,0.2-0.5,0.2c-0.4,0.1-0.7,0.1-1.1,0.2
				c-0.1,0.1-0.4,0.2-0.5,0.2c-0.1,0-0.3,0-0.4,0c-0.1,0.1-0.4,0.2-0.5,0.2l-0.2,0c-0.1,0.1-0.3,0.2-0.5,0.3c-0.3,0-0.5-0.1-0.7-0.2
				c0-0.1-0.1-0.4-0.2-0.5l0-0.2c-0.1-0.1-0.2-0.4-0.2-0.5l0-0.2c-0.1-0.1-0.2-0.3-0.2-0.5l0-0.2c-0.1-0.1-0.2-0.3-0.2-0.5
				c-0.1-0.4-0.2-0.7-0.2-1.1c-0.1-0.1-0.2-0.4-0.2-0.5l0-0.2c-0.1-0.1-0.2-0.3-0.2-0.5l0-0.2c-0.1-0.1-0.2-0.4-0.2-0.5l0-0.2
				c-0.1-0.1-0.2-0.4-0.2-0.5l0-0.2c-0.1-0.1-0.2-0.3-0.2-0.5l0-0.2c-0.1-0.1-0.2-0.4-0.2-0.5l0-0.2c-0.1-0.1-0.2-0.3-0.2-0.5l0-0.2
				c-0.1-0.1-0.2-0.3-0.2-0.5c-0.1-0.4-0.2-0.7-0.3-1c-0.1-0.1-0.2-0.4-0.2-0.5l0-0.2c-0.1-0.1-0.2-0.4-0.2-0.5l0-0.2
				c-0.1-0.1-0.2-0.4-0.2-0.5l0-0.2c-0.1-0.1-0.2-0.3-0.2-0.5l0-0.2c-0.1-0.1-0.2-0.3-0.2-0.5l0-0.2c-0.1-0.1-0.2-0.3-0.2-0.5l0-0.2
				c-0.1-0.1-0.2-0.3-0.2-0.5l0-0.2c-0.1-0.1-0.2-0.3-0.2-0.5c-0.1-0.4-0.2-0.7-0.3-1c-0.1-0.1-0.2-0.4-0.2-0.5l0-0.2
				c-0.1-0.1-0.2-0.4-0.2-0.5l0-0.2c-0.1-0.1-0.2-0.4-0.2-0.5l0-0.2c-0.1-0.1-0.2-0.3-0.2-0.5l0-0.2c-0.1-0.1-0.2-0.3-0.2-0.5l0-0.2
				c-0.1-0.1-0.2-0.4-0.2-0.5l0-0.2c-0.1-0.1-0.2-0.4-0.2-0.5l0-0.2c-0.1-0.1-0.2-0.3-0.2-0.5c-0.1-0.4-0.2-0.7-0.2-1
				c-0.1-0.1-0.2-0.3-0.2-0.5l0-0.2c-0.1-0.1-0.2-0.4-0.2-0.5l0-0.2c-0.1-0.1-0.2-0.4-0.2-0.5l0-0.2c-0.1-0.1-0.2-0.4-0.2-0.5l0-0.2
				c-0.1-0.1-0.2-0.4-0.2-0.5l0-0.2c-0.1-0.1-0.2-0.4-0.2-0.5l0-0.2c-0.1-0.1-0.2-0.4-0.2-0.5c-0.2-0.6-0.3-1.1-0.5-1.7
				c-0.1-0.1-0.2-0.4-0.2-0.5l0-0.2c-0.1-0.1-0.2-0.4-0.2-0.5l0-0.2c-0.1-0.1-0.2-0.4-0.2-0.5l0-0.2c-0.1-0.1-0.2-0.3-0.2-0.5l0-0.2
				c-0.1-0.1-0.2-0.3-0.2-0.5l0-0.2c-0.1-0.1-0.2-0.4-0.2-0.5c-0.1-0.3-0.1-0.6-0.2-0.9c-0.1-0.1-0.2-0.3-0.2-0.5
				c-0.1-0.3-0.2-0.7-0.2-1c-0.1-0.1-0.2-0.3-0.2-0.5l0-0.2c-0.1-0.1-0.2-0.4-0.2-0.5l0-0.2c-0.1-0.1-0.2-0.3-0.2-0.5l0-0.2
				c-0.1-0.1-0.2-0.3-0.2-0.5c-2-12.3-4.1-24.6-6.2-36.9c-0.7-4.3-1.5-8.6-2.1-13c0.4-0.3,0.9-0.2,1.3-0.3c18-2.3,36-4.7,54.1-7
				C95.7,209.4,96.2,209.4,96.5,209z M46.4,221.1c0.1,0.8,0.6,1.5,0.9,2.3c0.8,1.8,1.5,3.7,2.4,5.5c1,0,2-0.2,2.9-0.4
				c9.9-1.5,19.8-2.9,29.7-4.3c1.2-0.2,2.3-0.4,3.5-0.4c4.4,4.4,8.6,8.9,12.9,13.3c0.8,0,1.5-0.3,2.3-0.4c6.3-1.1,12.6-2.3,18.9-3.3
				c-0.9-0.8-1.9-1.5-2.9-2.3c-6.7-5.2-13.4-10.4-20.1-15.7c-0.4-0.3-0.8-0.9-1.5-0.7C79.2,216.8,62.8,219,46.4,221.1z M84.5,238.5
				c-10.7,1.9-21.5,3.8-32.2,5.7l-0.1,0.2c1,2.9,2.2,5.8,3.2,8.7c1.1,0,2.1-0.4,3.2-0.5c4.9-0.9,9.8-1.9,14.7-2.8
				c0.3,0,0.7-0.2,0.8,0.2c1.3,2.2,2.6,4.4,3.8,6.6c0.3,0.4,0.4,0.9,0.8,1.2c0.7,0,1.4-0.3,2.2-0.4c5.9-1.2,11.7-2.5,17.6-3.8
				c0.1-0.3-0.2-0.5-0.4-0.7c-3.7-4.5-7.3-9.1-11-13.6c-0.3-0.3-0.5-0.7-0.8-0.9C85.6,238.3,85.1,238.4,84.5,238.5z M69.3,267
				c-3.8,0.9-7.5,1.7-11.3,2.6c1,3,2.1,5.9,3,8.9c0.1,0.3,0.2,0.7,0.6,0.5c6-1.4,12-3,18-4.4c-0.2-0.6-0.5-1.1-0.8-1.7
				c-1.2-2.4-2.4-4.7-3.6-7.1C73.2,266,71.3,266.7,69.3,267z"/>
		</g>
	</g>
	<g id="XMLID_48_">
		<path id="XMLID_20_" class="st1" d="M46.4,221.1c16.4-2.1,32.8-4.2,49.2-6.3c0.6-0.2,1,0.4,1.5,0.7c6.7,5.2,13.4,10.4,20.1,15.7
			c0.9,0.8,2,1.4,2.9,2.3c-6.3,1.1-12.6,2.2-18.9,3.3c-0.8,0.1-1.5,0.3-2.3,0.4c-4.3-4.4-8.6-8.9-12.9-13.3c-1.2,0-2.3,0.3-3.5,0.4
			c-9.9,1.4-19.8,2.9-29.7,4.3c-1,0.1-2,0.4-2.9,0.4c-0.9-1.8-1.6-3.7-2.4-5.5C47,222.6,46.5,221.9,46.4,221.1z"/>
		<path id="XMLID_19_" class="st1" d="M84.5,238.5c0.6-0.1,1.1-0.2,1.7-0.2c0.4,0.2,0.6,0.6,0.8,0.9c3.7,4.5,7.3,9.1,11,13.6
			c0.1,0.2,0.4,0.4,0.4,0.7c-5.9,1.3-11.7,2.5-17.6,3.8c-0.7,0.2-1.4,0.4-2.2,0.4c-0.4-0.3-0.5-0.8-0.8-1.2
			c-1.3-2.2-2.6-4.4-3.8-6.6c-0.1-0.3-0.5-0.2-0.8-0.2c-4.9,0.9-9.8,1.9-14.7,2.8c-1.1,0.2-2.1,0.6-3.2,0.5
			c-1.1-2.9-2.2-5.8-3.2-8.7l0.1-0.2C63,242.3,73.8,240.4,84.5,238.5z"/>
		<path id="XMLID_18_" class="st1" d="M69.3,267c2-0.3,4-1.1,6-1.3c1.2,2.4,2.4,4.7,3.6,7.1c0.3,0.6,0.6,1.1,0.8,1.7
			c-6,1.5-12,3-18,4.4c-0.4,0.2-0.5-0.3-0.6-0.5c-1-3-2-5.9-3-8.9C61.7,268.7,65.5,267.9,69.3,267z"/>
	</g>
	<g id="XMLID_27_">
		<path id="XMLID_17_" class="st2" d="M157.9,228.1c0.2,0,0.5-0.1,0.6-0.1c2.3-0.1,4.5-0.1,6.8,0c0.9,0.1,1.9,0.1,2.8,0.3
			c0.2,0.1,0.4,0.2,0.7,0.1c0.2,0,0.5,0.1,0.7,0.1c0.2,0.2,0.4,0.2,0.6,0.2c0.5,0,0.9,0.1,1.3,0.2c2.3,0.6,4.5,1.3,6.6,2.4
			c0,1.2-0.1,2.3-0.4,3.5c-0.1,0.3-0.2,0.7-0.1,1.1c0,0.2-0.1,0.5-0.1,0.7c-0.1,0.3-0.2,0.7-0.1,1c0,0.3,0,0.6-0.1,0.9
			c-0.1,0.3-0.2,0.7-0.1,1c0,0.2-0.1,0.5-0.1,0.7c-0.1,0.3-0.2,0.7-0.1,1c0,0.3,0,0.6-0.1,0.9c-0.1,0.3-0.2,0.7-0.1,1l0,0.2
			l-0.2,0.1c-3.2-1.8-6.7-3.2-10.3-4c-0.2-0.2-0.4-0.2-0.6-0.2c-0.7,0-1.3-0.1-1.9-0.2c-1.2-0.2-2.4-0.2-3.6,0c-0.2,0-0.5,0-0.6,0.1
			c-0.2,0-0.4,0-0.6,0.1c-0.8,0.4-1.7,0.6-2.3,1.3c-0.5,0.4-0.8,1-1,1.6c0,0.1-0.1,0.3-0.1,0.4c-0.1,1.5,0.1,3.1,1.3,4.1
			c2.2,1.9,4.9,2.7,7.5,3.8c4.2,1.6,8.5,3.3,12.1,6.2c2.4,1.9,4.3,4.6,4.8,7.7c0,0.2,0,0.4,0.2,0.6c0.4,1.8,0.3,3.6,0.2,5.5
			c0,0.6,0,1.2-0.2,1.7c-0.1,0.2-0.2,0.4-0.1,0.6c-0.3,2.3-1.4,4.5-2.7,6.4c-2.3,3.1-5.7,5.1-9.3,6.1c-0.1,0-0.3,0-0.4,0
			c-0.1,0-0.3,0.1-0.4,0.2c-0.1,0-0.3,0-0.4,0c-0.1,0-0.3,0.1-0.4,0.2c-0.2,0-0.5,0-0.7,0.1c-0.2,0-0.4,0-0.6,0.2
			c-0.2,0-0.5,0.1-0.7,0.1c-0.4,0-0.7,0-1,0.1c-1.1,0.2-2.3,0.2-3.5,0.2c-1.3,0-2.6,0-3.9-0.2c-0.5-0.1-1-0.1-1.5-0.1
			c-0.7,0-1.5-0.1-2.2-0.3c-0.2-0.1-0.4-0.2-0.6-0.1c-0.2,0-0.5-0.1-0.7-0.1c-0.2-0.2-0.4-0.2-0.6-0.2c-0.1,0-0.3,0-0.4,0
			c-0.2-0.2-0.4-0.2-0.6-0.2c-0.5,0-0.9-0.1-1.3-0.3c-0.1,0-0.3-0.1-0.4-0.2c-2.3-0.5-4.5-1.4-6.7-2.3l-0.1-0.2c0-0.1,0-0.4,0-0.6
			c0-1.2,0.2-2.3,0.3-3.5c0.1-0.9,0.1-1.8,0.4-2.7c0.1-0.3,0.2-0.7,0.1-1c0.1-1.5,0.3-2.9,0.5-4.4c0.1,0,0.3,0,0.4,0
			c2.5,1.2,4.9,2.4,7.6,3.2c1.1,0.4,2.2,0.7,3.4,1c0.1,0,0.3,0.1,0.4,0.1c0.1,0,0.3,0.1,0.4,0.1c0.2,0.1,0.4,0.2,0.6,0.2
			c0.2,0,0.5,0.1,0.7,0.1c0.2,0.2,0.4,0.2,0.6,0.2c0.2,0,0.5,0,0.7,0.1c0.3,0.1,0.5,0.2,0.8,0.1c1.5,0.1,2.9,0.1,4.4,0
			c0.2,0,0.4,0,0.6-0.2c1-0.3,2-0.6,2.8-1.2c0.9-0.7,1.4-1.7,1.6-2.7c0.2-0.8,0.2-1.6,0-2.3c-0.5-2.2-2.6-3.3-4.4-4.3
			c-4.5-2.2-9.3-3.5-13.6-6c-2.7-1.6-5.3-3.7-6.7-6.6c-0.3-0.8-0.8-1.6-0.8-2.5c0-0.2,0-0.4-0.2-0.6c-0.2-0.6-0.2-1.3-0.3-1.9
			c-0.1-1.4-0.1-2.8,0-4.2c0-0.3,0.1-0.6,0.1-0.8c0.1-0.2,0.2-0.4,0.2-0.6c0.2-2,1.1-3.9,2.1-5.6c2.2-3.5,6-5.9,10-7
			c0.5-0.1,1.1-0.3,1.7-0.3c0.2,0,0.5,0,0.7-0.1c0.1,0,0.3,0,0.5-0.1C157.3,228.2,157.6,228.2,157.9,228.1z"/>
		<path id="XMLID_16_" class="st2" d="M192.9,230.4c2.4-0.7,4.7-1.4,7.1-2c0,11-0.1,21.9,0,32.9c0.1-0.1,0.2-0.2,0.3-0.2
			c3.5-5.3,6.9-10.7,10.4-16c2.4-0.1,4.8,0,7.1-0.1c2.1,0,4.2-0.1,6.3,0.1c0,0.3-0.2,0.5-0.4,0.7c-4,5.8-8,11.6-12.1,17.3
			c-0.2,0.2-0.3,0.5,0,0.8c4.2,6.6,8.4,13.2,12.6,19.8c0.1,0.2,0.4,0.5,0.4,0.8c-0.3,0.1-0.6,0.2-0.9,0.2c-0.1,0-0.3,0.1-0.4,0.2
			c-0.9,0.2-1.7,0.6-2.6,0.7c-0.1,0-0.3,0.1-0.4,0.2c-0.4,0.1-0.7,0.2-1.1,0.2c-0.1,0-0.3,0.1-0.4,0.2c-2,0.5-3.9,1.2-5.9,1.6
			c-0.1,0-0.3,0-0.4,0c-4.2-6.8-8.2-13.7-12.3-20.5c-0.1-0.1-0.2-0.3-0.3-0.4c0,5.9,0,11.9,0,17.9c0,0.3,0,0.6-0.1,0.9
			c-3.1,0.1-6.3,0-9.4,0.1c-1,0-2,0.1-3.1-0.1c-0.1-3.5,0-7,0-10.5c0-13.3,0-26.6,0-39.9c0-1.1-0.1-2.3,0.1-3.4
			c1.2-0.3,2.3-0.7,3.5-0.9c0.1,0,0.3-0.1,0.4-0.2c0.3-0.1,0.7-0.2,1.1-0.3C192.6,230.6,192.8,230.5,192.9,230.4z"/>
		<path id="XMLID_15_" class="st2" d="M278.1,229.8c1.6-0.4,3.2-0.9,4.8-1.3c0.1,5.5,0,11,0,16.5l0.1,0.2c2.5,0,5-0.1,7.6,0.1
			c0,0.1,0,0.4,0,0.5c0,0.2,0,0.4,0.2,0.6c0,0.2,0,0.5,0.1,0.7c-0.1,0.2,0,0.4,0.2,0.6c0,0.2,0.1,0.5,0.1,0.7
			c-0.1,0.2,0,0.4,0.2,0.6c0,0.2,0.1,0.5,0.1,0.7c-0.1,0.2,0,0.4,0.2,0.6c0,0.2,0.1,0.5,0.1,0.7c-0.1,0.2,0,0.4,0.1,0.6
			c0,0.2,0.1,0.5,0.1,0.7c-0.1,0.2,0,0.4,0.1,0.6c0.2,0.6,0.3,1.3,0.3,2c0,0.1,0,0.3-0.1,0.4c-3,0.2-6,0-9.1,0.1l-0.1,0.2
			c0,5.2,0,10.3,0,15.5c0,1.6,0.5,3.3,2,4.1c1.7,0.9,3.8,0.7,5.7,0.4l0.2,0.1l0,0.2c-0.1,0.2,0,0.4,0.2,0.6c0,0.2,0,0.5,0.1,0.7
			c-0.1,0.2,0,0.4,0.2,0.6c0,0.2,0,0.5,0.1,0.7c-0.1,0.2,0,0.4,0.2,0.6c0,0.2,0,0.5,0.1,0.7c-0.1,0.2,0,0.4,0.2,0.6
			c0,0.2,0.1,0.5,0.1,0.7c-0.1,0.2,0,0.4,0.2,0.6c0,0.2,0.1,0.5,0.1,0.7c-0.1,0.2,0,0.4,0.1,0.6c0,0.2,0.1,0.5,0.1,0.7
			c-0.1,0.2,0,0.4,0.1,0.6c0,0.2,0.1,0.5,0.1,0.7c-0.1,0.3-0.2,0.5-0.2,0.8c-0.4,0.1-0.8,0.2-1.2,0.2c-0.2,0-0.4,0-0.6,0.2
			c-0.3,0.1-0.6,0.1-0.9,0.1c-0.4,0-0.8,0-1.2,0.1c-1.7,0.2-3.5,0.2-5.3,0c-0.4-0.1-0.8-0.1-1.2-0.1c-0.2,0-0.5-0.1-0.7-0.1
			c-0.2-0.1-0.4-0.2-0.6-0.1c-0.1,0-0.3,0-0.4-0.1c-0.2-0.2-0.4-0.2-0.6-0.2c-3.8-0.7-7.2-3.6-8.1-7.4c-0.1-0.1-0.2-0.3-0.2-0.4
			c0-0.1,0-0.3,0-0.5c0-0.2,0-0.4-0.2-0.6c-0.5-1.8-0.3-3.8-0.4-5.7c0-5.3,0-10.5,0-15.8c-1.5,0-3,0.1-4.5,0
			c-0.3-0.3-0.2-0.8-0.2-1.2c0-0.2,0-0.5-0.2-0.6c0-0.1,0-0.3,0-0.5c0-0.2,0-0.4-0.2-0.6c0-0.2,0-0.5,0-0.7c0-0.2,0-0.4-0.2-0.6
			c0-0.2,0-0.5,0-0.7c0-0.2,0-0.4-0.2-0.6c0-0.2,0-0.5,0-0.7c0-0.2,0-0.4-0.2-0.6c0-0.2,0-0.5,0-0.7c0-0.2,0-0.4-0.2-0.6
			c0-0.2,0-0.5,0-0.7c0-0.2,0-0.4-0.2-0.6c-0.1-0.3-0.1-0.5,0-0.8c2,0,4.1,0.1,6.1,0c0.1-4.3,0-8.7,0-13c1.9-0.5,3.8-1.2,5.8-1.6
			c0.1,0,0.3-0.1,0.4-0.2c0.3-0.1,0.7-0.2,1.1-0.3C277.8,229.9,278,229.8,278.1,229.8z"/>
		<path id="XMLID_14_" class="st2" d="M334,232c4.2-1.1,8.3-2.4,12.4-3.5c0.1,2.4,0,4.8,0.1,7.2c0,4.8,0,9.6,0,14.4
			c0.1,0,0.2-0.1,0.3-0.1c2.4-2.2,5.1-4.4,8.4-5.1c0.1,0,0.3-0.1,0.4-0.2c0.1,0,0.3,0,0.5,0c0.2,0,0.4,0,0.6-0.2
			c1.2-0.2,2.5-0.2,3.7,0c0.3,0.1,0.6,0.2,0.8,0.1c0.1,0,0.3,0.1,0.4,0.1c0.2,0.1,0.4,0.2,0.6,0.2c3.5,0.7,6.5,3.7,7.2,7.2
			c0.1,0.1,0.1,0.3,0.2,0.4c0,0.1,0,0.3,0,0.4c0,0.2,0,0.4,0.2,0.6c0,0.2,0.1,0.5,0.1,0.7c0,0.4,0,0.7,0.1,1c0.2,2,0.1,3.9,0.1,5.9
			c0,8.2,0,16.4,0,24.6c-2.4,0.1-4.8,0-7.2,0.1c-1.8,0-3.6,0.1-5.4,0c0-8.4,0-16.7,0-25.1c0-1.4-0.2-3-1.1-4.1
			c-0.4-0.5-1.1-0.8-1.7-1c-0.2-0.1-0.4-0.2-0.6-0.2c-2.9-0.2-5.5,1.6-7.5,3.5c-0.1,0.2-0.2,0.4-0.1,0.7c0,6.5,0,12.9,0,19.4
			c0,2.3,0.1,4.5,0,6.8c-2.4,0.1-4.8,0-7.2,0.1c-1.8,0-3.5,0.1-5.3,0c-0.1-5.5,0-10.9-0.1-16.4c0-10,0-20,0-30.1
			C334,236.9,333.9,234.4,334,232z"/>
		<path id="XMLID_13_" class="st2" d="M378.1,228.5c4.8,0,9.5,0,14.3,0c0,9.9,0,19.9,0,29.8c0,2.8-0.1,5.7,0.3,8.5
			c0,0.2,0,0.5,0.2,0.6l0,0.2c0,0.1,0.1,0.3,0.2,0.4c0.6,2.1,1.8,4.1,3.7,5.3c0.7,0.5,1.6,0.7,2.5,1.1c0.2,0.1,0.4,0.2,0.6,0.2
			c2.3,0.2,4.7,0.3,6.9-0.8c2.4-1,3.9-3.3,4.6-5.7c0-0.1,0.1-0.3,0.2-0.4c0-0.1,0-0.3,0.1-0.4c0.2-0.2,0.2-0.4,0.2-0.6
			c0-1,0.2-1.9,0.2-2.9c0-11.8,0-23.5,0-35.3c4.8,0,9.5,0,14.3,0c0,9.9,0,19.7,0,29.6c-0.1,3.1,0.2,6.3-0.3,9.4
			c-0.2,0.2-0.2,0.4-0.2,0.6c0,0.1,0,0.3,0,0.5c-0.2,0.2-0.2,0.4-0.2,0.6c0,0.1,0,0.3,0,0.4c-0.2,0.2-0.2,0.4-0.2,0.6
			c-0.6,3.1-2.1,6.1-4.1,8.6c-2.7,3.3-6.5,5.6-10.6,6.8c-0.5,0.1-1.1,0.4-1.7,0.4c-0.2,0-0.5,0-0.7,0.1l-0.2,0c-0.2,0-0.5,0-0.6,0.2
			c-0.9,0.3-1.9,0.2-2.8,0.3c-1.8,0.1-3.7,0.1-5.5,0c-0.9-0.1-1.8,0-2.6-0.3c-0.2-0.1-0.4-0.2-0.6-0.1c-0.2,0-0.5-0.1-0.7-0.1
			c-0.2-0.2-0.4-0.2-0.6-0.2c-0.1,0-0.3,0-0.5,0c-0.1-0.1-0.3-0.2-0.4-0.2c-0.4,0-0.7-0.1-1.1-0.2c-0.1,0-0.3-0.1-0.4-0.2
			c-6.4-1.8-11.5-7.3-13.1-13.7c0-0.1-0.1-0.3-0.2-0.4c-0.2-0.5-0.3-1-0.3-1.5c0-0.1-0.1-0.3-0.1-0.4c-0.2-0.8-0.3-1.6-0.3-2.4
			c0-0.6-0.1-1.2-0.1-1.8c-0.1-5.1,0-10.3-0.1-15.4C378.1,242.5,378,235.5,378.1,228.5z"/>
		<g id="XMLID_39_">
			<path id="XMLID_40_" class="st2" d="M240.4,244.6c1-0.3,2-0.3,3.1-0.3c0.9,0,1.9-0.1,2.8,0.1c0.3,0.1,0.7,0.1,1,0.1
				c0.2,0,0.5,0.1,0.7,0.1c0.2,0.1,0.4,0.2,0.6,0.2c0.1,0,0.3,0,0.4,0c0.1,0,0.3,0.1,0.4,0.2c0.1,0,0.3,0,0.4,0.1
				c0.1,0.1,0.3,0.2,0.4,0.2c5.4,1.5,9.4,6.4,10.7,11.7c0,0.1,0.1,0.3,0.2,0.4c0.1,0.4,0.3,0.9,0.3,1.3c0,0.2,0,0.4,0.2,0.6
				c0.2,0.8,0.3,1.6,0.3,2.4c0,0.4,0,0.8,0.1,1.2c0.2,1.4,0.1,2.9,0,4.3c0,0.4-0.1,0.8-0.2,1.2c-2.2,0.2-4.5,0-6.8,0.1
				c-5.9,0-11.9,0-17.8,0c0,0.3,0.1,0.6,0.1,0.8c0,0.1,0,0.3,0,0.4c0,0.2,0,0.4,0.2,0.6c0.5,1.9,1.3,3.8,2.9,5
				c1.1,1,2.5,1.4,3.9,1.8c0.3,0.1,0.5,0.2,0.8,0.1c1,0,2.1,0.1,3.1,0c0.9,0,1.7-0.3,2.6-0.3c0.2,0,0.4,0,0.6-0.2
				c3.1-0.8,6-2,8.8-3.6c0.5,0.1,0.3,1,0.4,1.4c0,0.2,0,0.4,0.2,0.6c0,0.2,0,0.5,0.1,0.7c-0.1,0.2,0,0.4,0.2,0.6
				c0,0.2,0,0.5,0.1,0.7c-0.1,0.2,0,0.4,0.2,0.6c0,0.2,0,0.5,0.1,0.7c-0.1,0.2,0,0.4,0.2,0.6c0,0.2,0,0.5,0.1,0.7
				c-0.1,0.2,0,0.4,0.2,0.6c0.1,0.5,0.3,1,0.1,1.5c-1.1,0.7-2.1,1.3-3.3,1.8c-0.1,0.1-0.3,0.2-0.4,0.2c-1.3,0.6-2.6,1.1-3.9,1.4
				c-0.1,0-0.3,0.1-0.4,0.2c-0.1,0-0.3,0-0.4,0.1c-0.1,0-0.3,0.1-0.4,0.2c-0.1,0-0.3,0-0.4,0c-0.2,0-0.5,0-0.6,0.2
				c-0.1,0-0.3,0-0.5,0c-0.2,0-0.4,0-0.6,0.2c-3.2,0.5-6.4,0.5-9.6,0c-0.2-0.1-0.4-0.2-0.6-0.2c-0.1,0-0.3,0-0.4,0
				c-0.2-0.1-0.4-0.2-0.6-0.2c-0.1,0-0.3,0-0.4,0c-0.1-0.1-0.3-0.2-0.4-0.2c-0.7-0.1-1.4-0.4-2-0.6c-3.4-1.3-6.5-3.6-8.5-6.8
				c-1.2-2-2.2-4.3-2.6-6.6c0-0.2,0-0.4-0.2-0.6c-0.3-0.9-0.3-1.9-0.4-2.8c-0.1-2.2-0.2-4.4,0.2-6.5c0.1-0.3,0.1-0.6,0.1-0.9
				c0-0.1,0.1-0.3,0.1-0.5c0.1-0.2,0.2-0.4,0.2-0.6c0-0.1,0-0.3,0.1-0.4c0.1-0.2,0.2-0.4,0.2-0.6c0-0.4,0.1-0.8,0.3-1.1
				c0-0.1,0.1-0.3,0.2-0.4c0-0.5,0.3-1,0.5-1.5c1.4-3.5,3.9-6.6,7.1-8.6c1.8-1.1,3.8-2.1,5.9-2.3C240,244.8,240.2,244.8,240.4,244.6
				z M238.8,255.8c-0.5,1-0.9,2.1-1,3.2l-0.2,0l-0.1,0.2l0.1,0.2c-0.2,0.8-0.2,1.5-0.3,2.3c4.3,0,8.5,0,12.8,0c0-0.3,0-0.6-0.1-0.8
				c0.2-0.3,0.3-1-0.1-1.1c0-0.1,0-0.4-0.1-0.5c0.2-0.3,0.2-0.5-0.2-0.6c0-0.1,0-0.3,0-0.5c0.2-0.3,0.2-0.5-0.2-0.6
				c-0.3-1.6-1.1-3.1-2.4-4.2c-1.3-1.1-3.1-1.2-4.7-0.9C240.8,253,239.5,254.3,238.8,255.8z"/>
		</g>
		<g id="XMLID_35_">
			<path id="XMLID_36_" class="st2" d="M455.8,244.4c1.1-0.2,2.2-0.2,3.3,0c0.3,0.1,0.5,0.2,0.8,0.1c0.2,0,0.5,0,0.7,0.1
				c0.1,0.1,0.3,0.1,0.4,0.2c3.3,0.6,6.1,3,7.9,5.8c1.6,2.7,2.6,5.7,2.8,8.8c0,0.4,0,0.7,0.1,1c0.1,0.3,0.1,0.7,0.1,1.1
				c0.1,2,0.1,4,0,5.9c-0.1,0.9,0,1.8-0.3,2.6c-0.1,0.2-0.2,0.4-0.1,0.6c0,0.2-0.1,0.5-0.1,0.7c-0.2,0.2-0.2,0.4-0.2,0.6
				c0,0.7-0.3,1.3-0.5,2c0,0.1-0.1,0.3-0.2,0.4c-1.2,4-3.9,7.8-7.6,9.8c-3.3,1.9-7.2,2.4-10.9,1.9c-0.3-0.1-0.6-0.2-0.8-0.1
				c-0.3,0-0.6,0-0.9-0.1c-0.2-0.2-0.4-0.2-0.6-0.2c-0.1,0-0.3,0-0.5,0c-0.1,0-0.3-0.1-0.4-0.2c-0.9,0-1.7-0.5-2.5-0.6
				c0,3.8,0,7.5,0,11.3c-0.1,0.9,0.1,1.9-0.1,2.8c-0.1,0-0.3,0-0.4,0c-0.1,0-0.3,0.1-0.4,0.2c-0.4,0.1-0.7,0.2-1.1,0.2
				c-0.1,0-0.3,0.1-0.4,0.2c-0.4,0.1-0.7,0.2-1.1,0.2c-0.1,0.1-0.3,0.2-0.4,0.2c-0.1,0-0.3,0-0.4,0.1c-0.1,0-0.3,0.1-0.4,0.2l-0.2,0
				c-0.1,0-0.3,0.1-0.4,0.2c-1.7,0.4-3.3,1-5,1.4c-0.1,0-0.3,0.1-0.4,0.2c-0.5,0.2-1,0.4-1.6,0.3c-0.1-17.8,0-35.6,0-53.4
				c0-1.3-0.1-2.5,0-3.8c3.3-0.1,6.6,0,9.9-0.1c0.4,0,0.8-0.1,1.2,0.1c0.1,0.4,0.1,0.9,0.1,1.3c0,0.2,0,0.4,0.2,0.6
				c0,0.2,0,0.5,0.1,0.7c-0.1,0.2,0,0.4,0.1,0.6c0,0.2,0.1,0.5,0.1,0.7c-0.1,0.2,0,0.5,0.1,0.7c0.1,0.1,0.2,0.3,0.3,0.4
				c2.5-2.6,5.5-5.1,9.2-5.7C455.2,244.6,455.5,244.5,455.8,244.4z M451.3,255.7l0,0.2c-2,0.6-3.6,2.2-4.9,3.7c-0.1,1.7,0,3.3,0,5
				c0,3.5,0,7,0,10.4c0.4,0.4,1.1,0.6,1.6,0.7l0,0.2c0.1,0,0.3,0,0.4,0l0.2,0c0.1,0.3,0.3,0.4,0.6,0.2c1.2,0.2,2.5,0.4,3.7,0.2
				c0.3,0.2,0.5,0.2,0.6-0.1c2.9-0.4,4.8-3.2,5.2-5.9c0.3-0.1,0.4-0.3,0.2-0.6c0-0.1,0-0.3,0.1-0.5c0.4,0,0.4-0.7,0.1-0.8
				c0.2-0.3,0.1-0.7,0.1-1.1c0.3-0.6,0.1-1.3,0.1-2c-0.1-0.7,0.2-1.4-0.1-2c0-0.7-0.1-1.4-0.3-2.1l0.1-0.2l-0.1-0.2l-0.2,0
				c-0.2-1.7-1.2-3.4-2.6-4.3c-1.3-0.9-3-0.9-4.5-0.6l-0.2-0.1L451.3,255.7z"/>
		</g>
		<path id="XMLID_8_" class="st2" d="M311,244.8c2.4-0.4,5-0.5,7.4-0.2c0.3,0.1,0.7,0.2,1,0.1c0.2,0,0.5,0.1,0.7,0.1
			c0.2,0.2,0.4,0.2,0.6,0.2c0.8,0,1.5,0.3,2.2,0.5c0.1,0,0.3,0.1,0.4,0.2c1.3,0.3,2.6,0.9,3.8,1.5c0,0.3,0,0.7,0,1
			c0,0.2-0.1,0.5-0.1,0.7c-0.1,0.3-0.2,0.7-0.1,1c0,0.3,0,0.6-0.1,0.9c-0.1,0.3-0.2,0.7-0.1,1c0,0.2-0.1,0.5-0.1,0.7
			c-0.1,0.3-0.2,0.7-0.1,1c0,0.3,0,0.6-0.1,0.9c-0.1,0.3-0.2,0.7-0.1,1c0,0.2-0.1,0.5-0.1,0.7c-0.1,0.3-0.2,0.7-0.1,1
			c0,0.3,0,0.6-0.1,0.9c-1.8-1.2-3.8-2.1-5.9-2.6c-0.2-0.1-0.4-0.2-0.6-0.2c-2-0.2-4.2-0.4-6.1,0.4c-2.8,0.9-4.5,3.6-5.1,6.3
			c-0.1,0.2-0.2,0.4-0.1,0.6c-0.1,1.7-0.1,3.4,0,5.1c0,0.2,0,0.4,0.2,0.6c0.4,1.8,1.2,3.6,2.6,4.9c1.1,1.1,2.5,1.7,4,2.1
			c0.2,0.1,0.4,0.2,0.6,0.2c1.6,0.1,3.2,0.1,4.8-0.2c0.1,0,0.3-0.1,0.4-0.2c1.6-0.4,3.1-1.1,4.4-1.9c0.4-0.2,0.7-0.5,1.1-0.5
			c0,0.4,0.1,0.9,0.1,1.3c0,0.2,0,0.4,0.2,0.6c0,0.2,0,0.5,0.1,0.7c-0.1,0.2,0,0.4,0.2,0.6c0,0.2,0.1,0.5,0.1,0.7
			c-0.1,0.2,0,0.4,0.1,0.6c0,0.2,0.1,0.5,0.1,0.7c-0.1,0.2,0,0.4,0.1,0.6c0,0.2,0.1,0.5,0.1,0.7c-0.1,0.2,0,0.4,0.1,0.6
			c0,0.2,0.1,0.5,0.1,0.7c-0.1,0.2,0,0.4,0.1,0.6c0.2,0.5,0.3,1.1,0.2,1.6c-2.5,1.5-5.3,2.8-8.2,3.1c-0.2,0-0.4,0-0.6,0.2
			c-0.4,0.1-0.8,0.1-1.1,0.1c-0.5,0-1,0-1.5,0.1c-0.8,0.1-1.6,0.1-2.4,0c-0.6-0.1-1.2-0.1-1.8-0.1c-0.6-0.1-1.4,0-1.9-0.3
			c-0.2-0.2-0.4-0.2-0.6-0.2c-1.3-0.1-2.6-0.7-3.8-1.2c-5-2.2-8.6-7-9.7-12.3c0-0.1-0.1-0.3-0.2-0.4c0-0.1,0-0.3,0-0.5
			c0-0.2,0-0.4-0.2-0.6c-0.2-0.8-0.2-1.6-0.3-2.4c-0.1-1.8-0.1-3.7,0-5.5c0-0.3,0-0.6,0.1-0.8c0.1-0.3,0.2-0.5,0.1-0.8
			c0-0.3,0-0.6,0.1-0.9c0-0.1,0.1-0.3,0.2-0.4c0.6-3.9,2.5-7.6,5.4-10.3c2.3-2.2,5.1-3.8,8.2-4.5c0.2,0,0.4,0,0.6-0.2
			c0.1,0,0.3,0,0.4,0C310.7,244.9,310.9,244.9,311,244.8z"/>
		<path id="XMLID_7_" class="st2" d="M117.6,286.8c0.1-0.1,0.4-0.2,0.5-0.2C117.9,286.6,117.7,286.8,117.6,286.8z"/>
		<path id="XMLID_6_" class="st2" d="M106,290.1c0.1-0.1,0.4-0.2,0.5-0.2C106.4,289.9,106.2,290,106,290.1z"/>
		<path id="XMLID_5_" class="st2" d="M94.5,293.3c0.1-0.1,0.4-0.2,0.5-0.2C94.9,293.2,94.6,293.3,94.5,293.3z"/>
		<path id="XMLID_4_" class="st2" d="M58.8,298.8c0.1,0.1,0.2,0.4,0.2,0.5C58.9,299.1,58.8,298.9,58.8,298.8z"/>
		<path id="XMLID_3_" class="st2" d="M72.9,299.4c0.1-0.1,0.4-0.2,0.5-0.2C73.3,299.3,73.1,299.4,72.9,299.4z"/>
		<path id="XMLID_2_" class="st2" d="M61.4,302.7c0.1-0.1,0.4-0.2,0.5-0.2C61.8,302.5,61.5,302.7,61.4,302.7z"/>
	</g>
</g>
</svg>
