<?xml version="1.0" standalone="no"?>
<!DOCTYPE svg PUBLIC "-//W3C//DTD SVG 20010904//EN"
 "http://www.w3.org/TR/2001/REC-SVG-20010904/DTD/svg10.dtd">
<svg version="1.0" xmlns="http://www.w3.org/2000/svg"
 width="1214.000000pt" height="683.000000pt" viewBox="0 0 1214.000000 683.000000"
 preserveAspectRatio="xMidYMid meet">

<g transform="translate(0.000000,683.000000) scale(0.100000,-0.100000)"
fill="#000000" stroke="none">
<path d="M2746 4138 c-3 -29 -6 -376 -6 -770 l0 -718 770 0 770 0 0 770 0 770
-764 0 -763 0 -7 -52z m724 -314 c34 -10 67 -29 88 -50 l35 -35 -6 -88 c-16
-254 -181 -494 -440 -640 -58 -33 -178 -84 -184 -78 -2 2 21 20 50 40 170 117
324 313 383 487 28 84 25 225 -8 313 l-26 67 27 0 c15 0 52 -7 81 -16z m480
-84 c22 -12 80 -96 80 -114 -1 -16 -105 -89 -185 -129 -89 -44 -140 -59 -188
-55 l-38 3 67 50 c109 82 160 160 151 230 l-6 42 49 -8 c27 -4 58 -13 70 -19z
m-806 -230 c31 -34 59 -72 62 -84 23 -93 -46 -103 -128 -20 -40 40 -48 55 -57
109 -6 34 -11 74 -11 89 l0 28 39 -31 c21 -17 64 -58 95 -91z m537 -214 c232
-69 292 -103 350 -195 35 -54 38 -96 8 -112 -36 -19 -80 -2 -169 64 -112 83
-327 277 -307 277 2 0 55 -15 118 -34z"/>
<path d="M8056 3929 c-35 -27 -36 -86 -3 -117 34 -32 100 -30 132 3 76 75 -44
181 -129 114z"/>
<path d="M7552 3920 c-80 -12 -177 -64 -213 -112 -82 -114 -56 -257 64 -347
29 -21 98 -62 154 -90 151 -75 194 -132 159 -214 -40 -96 -214 -114 -366 -39
l-60 30 0 -73 c0 -88 1 -89 116 -111 179 -34 331 -6 413 77 49 48 63 92 59
179 -3 63 -8 82 -32 118 -38 56 -125 121 -241 177 -113 56 -155 97 -155 155 0
50 35 93 95 116 60 22 181 16 248 -14 l47 -21 0 73 0 74 -42 10 c-64 15 -186
22 -246 12z"/>
<path d="M4572 3439 l3 -474 72 -3 73 -3 2 173 3 173 120 5 c105 5 127 9 177
33 117 57 175 162 166 301 -6 85 -31 140 -87 187 -71 62 -113 71 -334 77
l-197 4 2 -473z m373 326 c59 -30 85 -75 85 -149 0 -125 -62 -178 -217 -184
l-93 -4 0 174 c0 96 3 178 8 182 14 16 175 1 217 -19z"/>
<path d="M6275 3632 c-39 -25 -71 -60 -87 -97 -12 -29 -13 -29 -16 33 l-3 62
-74 0 -75 0 0 -335 0 -335 74 0 75 0 3 208 c3 198 4 209 28 257 40 79 120 117
181 84 19 -10 20 -7 17 63 l-3 73 -45 3 c-31 2 -55 -4 -75 -16z"/>
<path d="M6707 3640 c-157 -40 -244 -177 -235 -369 7 -141 60 -230 173 -289
45 -24 61 -26 155 -27 89 0 113 4 155 23 139 64 210 214 185 391 -18 124 -76
212 -169 254 -52 24 -200 33 -264 17z m197 -128 c92 -54 123 -230 63 -352 -54
-110 -201 -131 -287 -41 -43 45 -60 97 -60 181 0 81 16 132 54 176 56 63 156
79 230 36z"/>
<path d="M8672 3639 c-18 -5 -53 -30 -79 -54 -26 -25 -48 -45 -50 -45 -2 0 -3
20 -3 45 l0 45 -75 0 -75 0 2 -332 3 -333 72 -3 71 -3 4 223 c3 218 4 224 29
272 43 82 115 107 180 63 60 -40 64 -56 67 -319 l3 -238 75 0 74 0 0 208 c0
237 8 277 66 333 31 30 41 34 86 33 44 0 55 -5 78 -31 41 -45 50 -109 50 -338
l0 -205 76 0 76 0 -4 258 c-6 275 -13 318 -61 371 -86 93 -277 77 -356 -31
l-29 -40 -12 24 c-20 38 -63 79 -99 94 -37 16 -119 17 -169 3z"/>
<path d="M5313 3632 c-40 -2 -73 -5 -73 -7 0 -4 158 -407 227 -577 l35 -88
-24 -61 c-12 -33 -37 -77 -54 -97 -28 -33 -36 -36 -97 -40 l-67 -4 0 -54 c0
-49 2 -54 26 -60 33 -9 129 3 157 19 92 51 131 112 223 345 42 109 114 292
160 407 l82 210 -70 3 c-39 2 -73 1 -76 -2 -6 -7 -151 -417 -166 -473 -6 -23
-14 -44 -17 -47 -3 -3 -43 110 -89 252 -45 141 -88 262 -94 267 -6 6 -44 9
-83 7z"/>
<path d="M8042 3298 l3 -333 73 -3 72 -3 0 336 0 335 -75 0 -75 0 2 -332z"/>
</g>
</svg>
